<svg width="36" height="25" viewBox="0 0 36 25" fill="none" xmlns="http://www.w3.org/2000/svg">
<path d="M21.9249 12.1503H19.9249C19.6597 12.1503 19.4053 12.2557 19.2178 12.4432C19.0303 12.6308 18.9249 12.8851 18.9249 13.1503C18.9249 13.4155 19.0303 13.6699 19.2178 13.8574C19.4053 14.045 19.6597 14.1503 19.9249 14.1503V16.1503H18.7407C18.8592 15.8301 18.9215 15.4918 18.9249 15.1503C18.925 14.4899 18.7072 13.8479 18.3052 13.324C17.9031 12.8 17.3395 12.4234 16.7015 12.2525C16.0636 12.0816 15.3871 12.126 14.777 12.3788C14.1669 12.6317 13.6573 13.0788 13.3273 13.6508C13.261 13.7646 13.2178 13.8904 13.2002 14.0209C13.1827 14.1514 13.1911 14.2841 13.2249 14.4113C13.2588 14.5386 13.3175 14.6579 13.3976 14.7624C13.4777 14.867 13.5777 14.9546 13.6917 15.0204C13.8058 15.0862 13.9318 15.1288 14.0624 15.1458C14.1929 15.1627 14.3256 15.1538 14.4527 15.1193C14.5798 15.0849 14.6989 15.0257 14.803 14.9451C14.9072 14.8645 14.9944 14.7642 15.0597 14.6498C15.1475 14.4981 15.2737 14.3721 15.4255 14.2844C15.5774 14.1967 15.7496 14.1505 15.9249 14.1503C16.1901 14.1503 16.4445 14.2557 16.632 14.4432C16.8196 14.6308 16.9249 14.8851 16.9249 15.1503C16.9249 15.4155 16.8196 15.6699 16.632 15.8574C16.4445 16.045 16.1901 16.1503 15.9249 16.1503C15.6597 16.1503 15.4054 16.2557 15.2178 16.4432C15.0303 16.6308 14.9249 16.8851 14.9249 17.1503C14.9249 17.4155 15.0303 17.6699 15.2178 17.8574C15.4054 18.045 15.6597 18.1503 15.9249 18.1503C16.1901 18.1503 16.4445 18.2557 16.632 18.4432C16.8196 18.6308 16.9249 18.8851 16.9249 19.1503C16.9249 19.4155 16.8196 19.6699 16.632 19.8574C16.4445 20.045 16.1901 20.1503 15.9249 20.1503C15.7496 20.1501 15.5774 20.1039 15.4255 20.0162C15.2737 19.9286 15.1475 19.8026 15.0597 19.6508C14.9944 19.5364 14.9072 19.4361 14.803 19.3555C14.6989 19.275 14.5798 19.2157 14.4527 19.1813C14.3256 19.1469 14.193 19.1379 14.0624 19.1549C13.9318 19.1718 13.8058 19.2144 13.6917 19.2802C13.5777 19.346 13.4777 19.4337 13.3976 19.5382C13.3175 19.6427 13.2588 19.762 13.225 19.8893C13.1911 20.0166 13.1827 20.1493 13.2003 20.2798C13.2178 20.4103 13.261 20.536 13.3273 20.6498C13.6573 21.2218 14.1669 21.669 14.777 21.9218C15.3871 22.1746 16.0636 22.219 16.7015 22.0482C17.3394 21.8773 17.9031 21.5006 18.3051 20.9767C18.7072 20.4527 18.925 19.8107 18.9249 19.1503C18.9215 18.8089 18.8592 18.4706 18.7407 18.1503H19.9249V21.1503C19.9249 21.4155 20.0303 21.6699 20.2178 21.8574C20.4053 22.045 20.6597 22.1503 20.9249 22.1503C21.1901 22.1503 21.4445 22.045 21.632 21.8574C21.8196 21.6699 21.9249 21.4155 21.9249 21.1503V14.1503C22.1901 14.1503 22.4445 14.045 22.632 13.8574C22.8196 13.6699 22.9249 13.4155 22.9249 13.1503C22.9249 12.8851 22.8196 12.6308 22.632 12.4432C22.4445 12.2557 22.1901 12.1503 21.9249 12.1503ZM9.9552 11.393C10.0196 11.6502 10.1835 11.8713 10.4108 12.0076C10.5234 12.0751 10.6482 12.1198 10.778 12.1391C10.9079 12.1584 11.0403 12.1519 11.1676 12.1201C11.295 12.0882 11.4148 12.0315 11.5202 11.9534C11.6257 11.8752 11.7147 11.777 11.7822 11.6644C11.8497 11.5518 11.8944 11.4271 11.9137 11.2972C11.933 11.1674 11.9265 11.035 11.8947 10.9076L10.1378 3.87787C10.0145 3.38444 9.72977 2.94639 9.3289 2.63337C8.92803 2.32035 8.43402 2.15033 7.92541 2.15033C7.4168 2.15033 6.92279 2.32035 6.52192 2.63337C6.12105 2.94639 5.83632 3.38444 5.71301 3.87787L3.9552 10.9076C3.89084 11.1648 3.93128 11.4371 4.06763 11.6644C4.20397 11.8918 4.42506 12.0557 4.68225 12.1201C4.93943 12.1844 5.21165 12.144 5.43902 12.0076C5.66639 11.8713 5.83029 11.6502 5.89465 11.393L6.45544 9.15033H9.39471L9.9552 11.393ZM6.95556 7.15033L7.65246 4.36322C7.67359 4.30796 7.711 4.26041 7.75974 4.22686C7.80847 4.19332 7.86625 4.17536 7.92541 4.17536C7.98458 4.17536 8.04235 4.19332 8.09109 4.22686C8.13982 4.26041 8.17723 4.30796 8.19836 4.36322L8.89489 7.15033H6.95556ZM14.9249 7.15033H15.9249C16.1901 7.15059 16.4443 7.25604 16.6317 7.44352C16.8192 7.631 16.9247 7.88519 16.9249 8.15033V9.15033C16.9249 9.41555 17.0303 9.6699 17.2178 9.85744C17.4053 10.045 17.6597 10.1503 17.9249 10.1503C18.1901 10.1503 18.4445 10.045 18.632 9.85744C18.8196 9.6699 18.9249 9.41555 18.9249 9.15033V8.15033C18.9241 7.35495 18.6077 6.59239 18.0453 6.02997C17.4829 5.46755 16.7203 5.1512 15.9249 5.15033H14.9249C14.6597 5.15033 14.4054 5.25569 14.2178 5.44322C14.0303 5.63076 13.9249 5.88511 13.9249 6.15033C13.9249 6.41555 14.0303 6.6699 14.2178 6.85744C14.4054 7.04497 14.6597 7.15033 14.9249 7.15033ZM10.9249 16.1503H9.92492C9.65979 16.1501 9.40559 16.0446 9.21811 15.8571C9.03063 15.6697 8.92519 15.4155 8.92492 15.1503V14.1503C8.92492 13.8851 8.81956 13.6308 8.63203 13.4432C8.44449 13.2557 8.19014 13.1503 7.92492 13.1503C7.6597 13.1503 7.40535 13.2557 7.21781 13.4432C7.03028 13.6308 6.92492 13.8851 6.92492 14.1503V15.1503C6.92579 15.9457 7.24214 16.7083 7.80456 17.2707C8.36698 17.8331 9.12954 18.1495 9.92492 18.1503H10.9249C11.1901 18.1503 11.4445 18.045 11.632 17.8574C11.8196 17.6699 11.9249 17.4155 11.9249 17.1503C11.9249 16.8851 11.8196 16.6308 11.632 16.4432C11.4445 16.2557 11.1901 16.1503 10.9249 16.1503Z" fill="#174377"/>
<path d="M32.2352 15.6503C31.8503 16.317 30.888 16.317 30.5031 15.6503L28.3381 11.9003C27.9532 11.2337 28.4343 10.4003 29.2041 10.4003H33.5342C34.304 10.4003 34.7851 11.2337 34.4002 11.9003L32.2352 15.6503Z" fill="#174377"/>
</svg>
