<svg width="13" height="13" viewBox="0 0 13 13" fill="none" xmlns="http://www.w3.org/2000/svg">
<path d="M9.625 9.625H9.63125M8.75 7.75H10.25C10.8324 7.75 11.1236 7.75 11.3534 7.84512C11.6596 7.972 11.903 8.21537 12.0299 8.52162C12.125 8.75137 12.125 9.04256 12.125 9.625C12.125 10.2074 12.125 10.4986 12.0299 10.7284C11.903 11.0346 11.6596 11.278 11.3534 11.4049C11.1236 11.5 10.8324 11.5 10.25 11.5H2.75C2.16758 11.5 1.87636 11.5 1.64664 11.4049C1.34036 11.278 1.09702 11.0346 0.97015 10.7284C0.875 10.4986 0.875 10.2074 0.875 9.625C0.875 9.04256 0.875 8.75137 0.97015 8.52162C1.09702 8.21537 1.34036 7.972 1.64664 7.84512C1.87636 7.75 2.16758 7.75 2.75 7.75H4.25M6.5 8.375V1.5M6.5 1.5L8.375 3.375M6.5 1.5L4.625 3.375" stroke="#535353" stroke-width="1.25" stroke-linecap="round" stroke-linejoin="round"/>
</svg>
